<?xml version="1.0" encoding="UTF-8" standalone="no"?>
<!-- Created with Inkscape (http://www.inkscape.org/) -->

<svg
   xmlns:dc="http://purl.org/dc/elements/1.1/"
   xmlns:cc="http://creativecommons.org/ns#"
   xmlns:rdf="http://www.w3.org/1999/02/22-rdf-syntax-ns#"
   xmlns:svg="http://www.w3.org/2000/svg"
   xmlns="http://www.w3.org/2000/svg"
   xmlns:sodipodi="http://sodipodi.sourceforge.net/DTD/sodipodi-0.dtd"
   xmlns:inkscape="http://www.inkscape.org/namespaces/inkscape"
   width="600.25"
   height="162.34375"
   id="svg2"
   version="1.1"
   inkscape:version="0.92.3 (2405546, 2018-03-11)"
   sodipodi:docname="GitHub_logo_2013-light.svg">
  <defs
     id="defs4">
    <clipPath
       id="clipPath3020"
       clipPathUnits="userSpaceOnUse">
      <path
         id="path3022"
         d="m 0,0 4802,0 0,1298.75 -4802,0 L 0,0 z"
         inkscape:connector-curvature="0" />
    </clipPath>
  </defs>
  <sodipodi:namedview
     id="base"
     pagecolor="#ffffff"
     bordercolor="#666666"
     borderopacity="1.0"
     inkscape:pageopacity="0.0"
     inkscape:pageshadow="2"
     inkscape:zoom="1.4"
     inkscape:cx="214.95274"
     inkscape:cy="54.189398"
     inkscape:document-units="px"
     inkscape:current-layer="layer1"
     showgrid="false"
     inkscape:window-width="1920"
     inkscape:window-height="1001"
     inkscape:window-x="-9"
     inkscape:window-y="-9"
     inkscape:window-maximized="1"
     fit-margin-top="0"
     fit-margin-left="0"
     fit-margin-right="0"
     fit-margin-bottom="0"
     inkscape:pagecheckerboard="true" />
  <metadata
     id="metadata7">
    <rdf:RDF>
      <cc:Work
         rdf:about="">
        <dc:format>image/svg+xml</dc:format>
        <dc:type
           rdf:resource="http://purl.org/dc/dcmitype/StillImage" />
        <dc:title></dc:title>
      </cc:Work>
    </rdf:RDF>
  </metadata>
  <g
     inkscape:label="Layer 1"
     inkscape:groupmode="layer"
     id="layer1"
     transform="translate(-85.589293,-376.9046)">
    <path
       id="path3024"
       style="fill:#ebebeb;fill-opacity:1;fill-rule:nonzero;stroke:none;stroke-width:0.125"
       d="m 201.21092,446.38897 h -50.44588 c -1.30125,0 -2.35687,1.05613 -2.35687,2.35838 v 24.66312 c 0,1.30125 1.05562,2.36088 2.35687,2.36088 h 19.67925 v 30.642 c 0,0 -4.4195,1.50637 -16.63475,1.50637 -14.41262,0 -34.54587,-5.26662 -34.54587,-49.539 0,-44.28237 20.96425,-50.10862 40.64687,-50.10862 17.03713,0 24.3775,3 29.04788,4.445 1.46725,0.45 2.82475,-1.01125 2.82475,-2.31375 l 5.62737,-23.83 c 0,-0.60875 -0.206,-1.3425 -0.90087,-1.84125 -1.89688,-1.3525 -13.46825,-7.8275 -42.70013,-7.8275 -33.67675,0 -68.220247,14.3275 -68.220247,83.20262 0,68.87745 39.549377,79.14113 72.877497,79.14113 27.59463,0 44.33538,-11.79248 44.33538,-11.79248 0.69,-0.38135 0.76412,-1.34527 0.76412,-1.78765 v -76.92087 c 0,-1.30225 -1.05412,-2.35838 -2.35537,-2.35838"
       inkscape:connector-curvature="0" />
    <path
       id="path3026"
       style="fill:#ebebeb;fill-opacity:1;fill-rule:nonzero;stroke:none;stroke-width:0.125"
       d="m 461.18304,385.1571 c 0,-1.3125 -1.04,-2.37125 -2.34125,-2.37125 h -28.40375 c -1.2975,0 -2.3525,1.05875 -2.3525,2.37125 0,0.006 0.007,54.89062 0.007,54.89062 H 383.81929 V 385.1571 c 0,-1.3125 -1.045,-2.37125 -2.34375,-2.37125 h -28.4025 c -1.2925,0 -2.34625,1.05875 -2.34625,2.37125 v 148.62885 c 0,1.31104 1.05375,2.37841 2.34625,2.37841 h 28.4025 c 1.29875,0 2.34375,-1.06737 2.34375,-2.37841 v -63.57373 h 44.27375 c 0,0 -0.0775,63.56884 -0.0775,63.57373 0,1.31104 1.05375,2.37841 2.3525,2.37841 h 28.47125 c 1.30125,0 2.34125,-1.06737 2.34375,-2.37841 V 385.1571"
       inkscape:connector-curvature="0" />
    <path
       id="path3028"
       style="fill:#ebebeb;fill-opacity:1;fill-rule:nonzero;stroke:none;stroke-width:0.125"
       d="m 254.80929,404.66085 c 0,-10.2275 -8.2,-18.4925 -18.31625,-18.4925 -10.10625,0 -18.3125,8.265 -18.3125,18.4925 0,10.21687 8.20625,18.504 18.3125,18.504 10.11625,0 18.31625,-8.28713 18.31625,-18.504"
       inkscape:connector-curvature="0" />
    <path
       id="path3030"
       style="fill:#ebebeb;fill-opacity:1;fill-rule:nonzero;stroke:none;stroke-width:0.125"
       d="m 252.77804,502.43335 c 0,-3.808 0,-68.60738 0,-68.60738 0,-1.30275 -1.05125,-2.36762 -2.35,-2.36762 h -28.31375 c -1.29875,0 -2.46125,1.33975 -2.46125,2.642 0,0 0,82.55675 0,98.294 0,2.88915 1.8,3.74755 4.13,3.74755 0,0 12.085,0 25.51,0 2.79875,0 3.485,-1.37353 3.485,-3.79345 0,-5.26905 0,-25.90873 0,-29.9151"
       inkscape:connector-curvature="0" />
    <path
       id="path3032"
       style="fill:#ebebeb;fill-opacity:1;fill-rule:nonzero;stroke:none;stroke-width:0.125"
       d="m 569.12929,431.68197 h -28.18625 c -1.2925,0 -2.345,1.06538 -2.345,2.37638 v 72.8775 c 0,0 -7.16,5.23875 -17.32375,5.23875 -10.1625,0 -12.86,-4.61125 -12.86,-14.5625 0,-9.96338 0,-63.55375 0,-63.55375 0,-1.311 -1.05,-2.37638 -2.34375,-2.37638 h -28.60625 c -1.29125,0 -2.34875,1.06538 -2.34875,2.37638 0,0 0,38.81012 0,68.36625 0,29.55764 16.47375,36.78859 39.13625,36.78859 18.59125,0 33.58125,-10.27099 33.58125,-10.27099 0,0 0.71375,5.4126 1.03625,6.05469 0.32375,0.64013 1.165,1.28661 2.07375,1.28661 l 18.19875,-0.0801 c 1.29125,0 2.34875,-1.06737 2.34875,-2.37255 l -0.009,-99.77252 c 0,-1.311 -1.05375,-2.37638 -2.3525,-2.37638"
       inkscape:connector-curvature="0" />
    <path
       id="path3034"
       style="fill:#ebebeb;fill-opacity:1;fill-rule:nonzero;stroke:none;stroke-width:0.125"
       d="m 635.04804,512.08472 c -9.77625,-0.29775 -16.4075,-4.73387 -16.4075,-4.73387 v -47.06788 c 0,0 6.5425,-4.00975 14.56875,-4.7265 10.15,-0.90925 19.93,2.15675 19.93,26.36963 0,25.53225 -4.41375,30.57075 -18.09125,30.15862 z m 11.1175,-83.74162 c -16.00875,0 -26.8975,7.1425 -26.8975,7.1425 v -50.3285 c 0,-1.3125 -1.04875,-2.37125 -2.34375,-2.37125 h -28.48375 c -1.295,0 -2.3475,1.05875 -2.3475,2.37125 v 148.62885 c 0,1.31104 1.0525,2.37841 2.35125,2.37841 0.002,0 19.75625,0 19.7625,0 0.89,0 1.56375,-0.45849 2.06125,-1.2622 0.49125,-0.79884 1.2,-6.85254 1.2,-6.85254 0,0 11.6475,11.0376 33.69625,11.0376 25.885,0 40.73,-13.13037 40.73,-58.94337 0,-45.814 -23.70875,-51.80075 -39.72875,-51.80075"
       inkscape:connector-curvature="0" />
    <path
       id="path3036"
       style="fill:#ebebeb;fill-opacity:1;fill-rule:nonzero;stroke:none;stroke-width:0.125"
       d="m 334.41179,431.4451 h -21.30625 c 0,0 -0.0325,-28.14175 -0.0325,-28.148 0,-1.065 -0.54875,-1.5975 -1.78,-1.5975 h -29.035 c -1.12875,0 -1.735,0.49625 -1.735,1.58125 v 29.08712 c 0,0 -14.55,3.51275 -15.53375,3.79638 -0.98,0.28425 -1.70125,1.1875 -1.70125,2.26562 v 18.27838 c 0,1.31437 1.05,2.3745 2.34875,2.3745 h 14.88625 c 0,0 0,19.11762 0,43.97312 0,32.66113 22.91,35.87011 38.37,35.87011 7.06375,0 15.51375,-2.26904 16.90875,-2.78418 0.84375,-0.31005 1.33375,-1.18359 1.33375,-2.13085 l 0.0238,-20.10795 c 0,-1.311 -1.1075,-2.372 -2.355,-2.372 -1.24125,0 -4.4175,0.50487 -7.6875,0.50487 -10.465,0 -14.01125,-4.86625 -14.01125,-11.16462 0,-6.29388 -0.001,-41.7885 -0.001,-41.7885 h 21.3075 c 1.29875,0 2.35,-1.06013 2.35,-2.3745 v -22.895 c 0,-1.31213 -1.05125,-2.36825 -2.35,-2.36825"
       inkscape:connector-curvature="0" />
  </g>
</svg>
