<?xml version="1.0" encoding="UTF-8" standalone="no"?>
<!-- Generator: Adobe Illustrator 16.0.0, SVG Export Plug-In . SVG Version: 6.00 Build 0)  -->

<svg
   xmlns:dc="http://purl.org/dc/elements/1.1/"
   xmlns:cc="http://creativecommons.org/ns#"
   xmlns:rdf="http://www.w3.org/1999/02/22-rdf-syntax-ns#"
   xmlns:svg="http://www.w3.org/2000/svg"
   xmlns="http://www.w3.org/2000/svg"
   xmlns:sodipodi="http://sodipodi.sourceforge.net/DTD/sodipodi-0.dtd"
   xmlns:inkscape="http://www.inkscape.org/namespaces/inkscape"
   version="1.1"
   id="Capa_1"
   x="0px"
   y="0px"
   width="200"
   height="200"
   viewBox="0 0 199.99999 199.99999"
   xml:space="preserve"
   sodipodi:docname="math.svg"
   inkscape:version="0.92.3 (2405546, 2018-03-11)"><metadata
   id="metadata45"><rdf:RDF><cc:Work
       rdf:about=""><dc:format>image/svg+xml</dc:format><dc:type
         rdf:resource="http://purl.org/dc/dcmitype/StillImage" /><dc:title></dc:title></cc:Work></rdf:RDF></metadata><defs
   id="defs43">
	

		
		
	</defs><sodipodi:namedview
   pagecolor="#ffffff"
   bordercolor="#666666"
   borderopacity="1"
   objecttolerance="10"
   gridtolerance="10"
   guidetolerance="10"
   inkscape:pageopacity="0"
   inkscape:pageshadow="2"
   inkscape:window-width="1920"
   inkscape:window-height="1001"
   id="namedview41"
   showgrid="false"
   inkscape:zoom="1.6559776"
   inkscape:cx="-2.4154917"
   inkscape:cy="71.257004"
   inkscape:window-x="-9"
   inkscape:window-y="-9"
   inkscape:window-maximized="1"
   inkscape:current-layer="Capa_1" />
<path
   d="m 38.55046,200 c 19.397665,0 29.695335,-14.59506 32.723669,-23.21737 0.04831,-0.13613 0.09328,-0.27506 0.134926,-0.4168 7.056119,-24.62214 18.296603,-63.64708 26.62369,-92.033066 h 29.793615 c 5.60192,0 10.14442,-3.825589 10.14442,-8.546529 0,-4.720939 -4.5425,-8.546529 -10.14442,-8.546529 h -24.75139 c 2.6652,-8.943679 4.6158,-15.31358 5.38371,-17.487401 l 0.85286,-2.433446 c 3.14494,-9.041918 10.50922,-30.221592 21.89796,-30.221592 10.56086,0 12.13499,13.702514 12.20662,14.364905 0.44975,4.691468 5.30708,8.23498 10.88901,7.829406 5.58693,-0.359263 9.76796,-4.472543 9.33653,-9.176642 C 162.69385,19.697713 154.68659,-6.3585821e-7 131.20617,-6.3585821e-7 104.61912,-6.3585821e-7 94.637946,28.710161 89.84225,42.510911 l -0.816218,2.328192 c -0.974464,2.73096 -3.531391,11.145572 -6.866223,22.400603 H 46.665997 c -5.603585,0 -10.144421,3.82559 -10.144421,8.546529 0,4.72094 4.540836,8.546529 10.144421,8.546529 h 30.468242 c -10.415938,35.592296 -23.876867,82.539256 -25.35772,87.707876 -0.553029,1.35425 -4.712408,10.8649 -13.221061,10.8649 -12.992854,0 -18.618094,-15.36411 -18.663069,-15.47918 -1.559142,-4.53149 -7.171056,-7.15439 -12.5664221,-5.83241 -5.3803741,1.31495 -8.4820015,6.05414 -6.92285906,10.58843 C 3.9528221,182.51259 15.977875,200 38.55046,200 Z"
   id="path2"
   inkscape:connector-curvature="0"
   style="fill:#a6a6a6;fill-opacity:1;stroke-width:1" /><path
   d="m 188.99772,177.96006 c 5.97838,0 11.00228,-3.5772 11.00228,-9.27207 0,-2.64536 -1.25598,-5.03249 -3.92951,-7.68206 l -21.06508,-20.39659 20.44043,-20.13276 c 1.88563,-1.98717 3.29818,-4.10626 3.29818,-6.88774 0,-5.0381 -4.87565,-8.74441 -11.16552,-8.74441 -4.24267,0 -7.54085,2.25101 -10.37596,5.17002 l -15.87627,17.47758 -15.56311,-17.48039 c -3.14827,-3.30774 -6.44479,-5.16721 -11.16053,-5.16721 -5.98004,0 -11.00561,3.58 -11.00561,9.27488 0,2.64536 1.25931,5.03249 3.92617,7.67784 l 19.65419,19.07462 -21.54148,21.45614 c -2.04388,1.98717 -3.29819,4.10626 -3.29819,6.88774 0,5.0367 4.87399,8.7416 11.15886,8.7416 4.246,0 7.54585,-2.25101 10.37596,-5.16721 l 16.974,-18.80517 16.979,18.80517 c 3.15493,3.31616 6.45645,5.17002 11.17219,5.17002 z"
   id="path4"
   inkscape:connector-curvature="0"
   style="fill:#a6a6a6;fill-opacity:1;stroke-width:1" />
<g
   id="g10"
   transform="translate(0,57.485992)">
</g>
<g
   id="g12"
   transform="translate(0,57.485992)">
</g>
<g
   id="g14"
   transform="translate(0,57.485992)">
</g>
<g
   id="g16"
   transform="translate(0,57.485992)">
</g>
<g
   id="g18"
   transform="translate(0,57.485992)">
</g>
<g
   id="g20"
   transform="translate(0,57.485992)">
</g>
<g
   id="g22"
   transform="translate(0,57.485992)">
</g>
<g
   id="g24"
   transform="translate(0,57.485992)">
</g>
<g
   id="g26"
   transform="translate(0,57.485992)">
</g>
<g
   id="g28"
   transform="translate(0,57.485992)">
</g>
<g
   id="g30"
   transform="translate(0,57.485992)">
</g>
<g
   id="g32"
   transform="translate(0,57.485992)">
</g>
<g
   id="g34"
   transform="translate(0,57.485992)">
</g>
<g
   id="g36"
   transform="translate(0,57.485992)">
</g>
<g
   id="g38"
   transform="translate(0,57.485992)">
</g>
</svg>