<?xml version="1.0" encoding="UTF-8" standalone="no"?>
<!-- Generator: Adobe Illustrator 16.0.0, SVG Export Plug-In . SVG Version: 6.00 Build 0)  -->

<svg
   xmlns:dc="http://purl.org/dc/elements/1.1/"
   xmlns:cc="http://creativecommons.org/ns#"
   xmlns:rdf="http://www.w3.org/1999/02/22-rdf-syntax-ns#"
   xmlns:svg="http://www.w3.org/2000/svg"
   xmlns="http://www.w3.org/2000/svg"
   xmlns:sodipodi="http://sodipodi.sourceforge.net/DTD/sodipodi-0.dtd"
   xmlns:inkscape="http://www.inkscape.org/namespaces/inkscape"
   version="1.1"
   id="Capa_1"
   x="0px"
   y="0px"
   width="200"
   height="200"
   viewBox="0 0 200.00001 200.00001"
   xml:space="preserve"
   sodipodi:docname="math2.svg"
   inkscape:version="0.92.3 (2405546, 2018-03-11)"><metadata
   id="metadata45"><rdf:RDF><cc:Work
       rdf:about=""><dc:format>image/svg+xml</dc:format><dc:type
         rdf:resource="http://purl.org/dc/dcmitype/StillImage" /><dc:title></dc:title></cc:Work></rdf:RDF></metadata><defs
   id="defs43">
	

		
		
	
	

		
	</defs><sodipodi:namedview
   pagecolor="#ffffff"
   bordercolor="#666666"
   borderopacity="1"
   objecttolerance="10"
   gridtolerance="10"
   guidetolerance="10"
   inkscape:pageopacity="0"
   inkscape:pageshadow="2"
   inkscape:window-width="1920"
   inkscape:window-height="1001"
   id="namedview41"
   showgrid="false"
   units="px"
   inkscape:pagecheckerboard="true"
   inkscape:zoom="1.6419676"
   inkscape:cx="17.052711"
   inkscape:cy="71.864998"
   inkscape:window-x="-9"
   inkscape:window-y="-9"
   inkscape:window-maximized="1"
   inkscape:current-layer="Capa_1" />
<path
   d="m 10.170361,103.53936 h 8.273767 l 41.030707,58.38808 c 1.925814,2.73983 5.049697,4.32056 8.321078,4.32056 0.644257,0 1.298255,-0.0626 1.945295,-0.19063 3.939293,-0.76949 7.05761,-3.77928 7.962075,-7.69074 L 102.15028,52.691725 h 87.67744 c 5.61603,0 10.17175,-4.551546 10.17175,-10.170361 0,-5.616032 -4.55293,-10.170361 -10.17175,-10.170361 H 94.06575 c -4.732439,0 -8.841493,3.268597 -9.908761,7.878586 L 63.021729,131.59447 32.048673,87.520584 C 30.146514,84.814147 27.042112,83.200025 23.728987,83.200025 H 10.170361 C 4.5529376,83.200025 0,87.751571 0,93.370386 0.00139148,98.986417 4.5543291,103.53936 10.170361,103.53936 Z"
   id="path2"
   inkscape:connector-curvature="0"
   style="fill:#a6a6a6;fill-opacity:1;stroke-width:1" /><path
   d="m 113.72186,146.76861 c 0,4.99404 4.07149,8.66755 9.32156,8.66755 3.54689,0 6.30481,-2.23194 8.66755,-5.12205 l 14.18341,-18.64729 14.18201,18.64729 c 2.62712,3.2839 5.38226,5.12205 9.32016,5.12205 4.99543,0 9.19354,-3.5455 9.19354,-9.19075 0,-2.62573 -1.05196,-4.98986 -3.28529,-7.61977 l -17.59672,-20.22106 17.07491,-19.963625 c 1.57794,-1.970342 2.75514,-4.071483 2.75514,-6.830797 0,-4.994039 -4.07149,-8.670341 -9.32434,-8.670341 -3.54689,0 -6.30203,2.233333 -8.66756,5.126229 L 146.28121,105.39699 133.28196,88.066046 c -2.6299,-3.285295 -5.38365,-5.126229 -9.32155,-5.126229 -4.99265,0 -9.19215,3.549677 -9.19215,9.196322 0,2.622948 1.05196,4.989863 3.28112,7.612812 l 16.41534,18.913059 -17.99189,21.27441 c -1.7004,1.97173 -2.75097,4.07287 -2.75097,6.83219 z"
   id="path4"
   inkscape:connector-curvature="0"
   style="display:none;fill:#a6a6a6;fill-opacity:1;stroke-width:1" />















<path
   inkscape:connector-curvature="0"
   d="m 174.58907,143.44983 c -13.366,-10.451 -3.933,-53.438 -3.933,-53.438 0,0 14.631,0 16.336,0 1.705,0 8.389,-1.072 8.389,-9.076 0,-9.846 -8.168,-9.241 -8.168,-9.241 0,0 -44.774,0 -60.147,0 -9.873,0 -18.784,11.304 -23.899,19.389 -2.723,4.318001 -1.183,5.528001 3.493,3.493001 16.392,-7.178001 21.012,-4.593001 21.012,-4.593001 1.155,5.528001 1.54,30.473 -2.667,40.318 -4.263,9.269 -12.128,21.012 -0.578,27.915 9.021,5.115 18.481,-5.391 17.546,-23.268 -0.44,-9.461 -1.183,-44.938 -1.183,-44.938 h 15.072 c -0.469,5.528001 -3.025,33.745 -0.357,50.467 2.777,27.915 33.112,22.497 38.777,6.685 1.402,-4.373 1.073,-7.729 0.027,-10.26 -1.926,-4.702 -5.144,-4.949 -4.785,-2.75 0.221,1.402 0.083,2.777 -0.138,4.016 -0.661,3.823 -8.471,9.817 -14.797,5.281 z"
   id="path943"
   style="display:inline;fill:#a6a6a6;fill-opacity:1" /></svg>