<?xml version="1.0" encoding="UTF-8" standalone="no"?>
<!-- Created with Inkscape (http://www.inkscape.org/) -->

<svg
   xmlns:dc="http://purl.org/dc/elements/1.1/"
   xmlns:cc="http://creativecommons.org/ns#"
   xmlns:rdf="http://www.w3.org/1999/02/22-rdf-syntax-ns#"
   xmlns:svg="http://www.w3.org/2000/svg"
   xmlns="http://www.w3.org/2000/svg"
   xmlns:sodipodi="http://sodipodi.sourceforge.net/DTD/sodipodi-0.dtd"
   xmlns:inkscape="http://www.inkscape.org/namespaces/inkscape"
   width="3035.988"
   height="1409.41"
   viewBox="0 0 803.27181 372.90641"
   version="1.1"
   id="svg8"
   inkscape:version="0.92.3 (2405546, 2018-03-11)"
   inkscape:export-xdpi="96"
   inkscape:export-ydpi="96"
   sodipodi:docname="logo.svg">
  <defs
     id="defs2" />
  <sodipodi:namedview
     id="base"
     pagecolor="#000000"
     bordercolor="#666666"
     borderopacity="1.0"
     inkscape:pageopacity="0"
     inkscape:pageshadow="2"
     inkscape:zoom="0.35"
     inkscape:cx="1466.8281"
     inkscape:cy="690.08628"
     inkscape:document-units="mm"
     inkscape:current-layer="layer1"
     showgrid="false"
     units="px"
     inkscape:pagecheckerboard="true"
     inkscape:window-width="1920"
     inkscape:window-height="1001"
     inkscape:window-x="-9"
     inkscape:window-y="-9"
     inkscape:window-maximized="1"
     fit-margin-left="0"
     fit-margin-top="0"
     fit-margin-right="0"
     fit-margin-bottom="0" />
  <metadata
     id="metadata5">
    <rdf:RDF>
      <cc:Work
         rdf:about="">
        <dc:format>image/svg+xml</dc:format>
        <dc:type
           rdf:resource="http://purl.org/dc/dcmitype/StillImage" />
        <dc:title />
      </cc:Work>
    </rdf:RDF>
  </metadata>
  <g
     inkscape:label="Livello 1"
     inkscape:groupmode="layer"
     id="layer1"
     transform="translate(-76.056635,101.12681)">
    <g
       id="g6670"
       transform="matrix(-2.5000008,-4.3301256,4.3301284,-2.4999992,806.57731,1307.6161)"
       style="stroke-width:0.2">
      <path
         sodipodi:nodetypes="cccscsssscsccssccc"
         inkscape:connector-curvature="0"
         id="path4572"
         transform="matrix(0.26458333,0,0,0.26458333,0,-232.16668)"
         d="m 1050,900 c -5.6841,-10e-6 -11.141,0.96166 -16.2324,2.70898 4.4718,3.13616 8.5026,6.92607 11.9121,11.35352 1.4198,-0.18268 2.8595,-0.28906 4.3203,-0.28906 29.4284,0 82.465,11.92244 92.8281,14.69922 12.4948,3.34795 23.3985,10.31008 23.3985,21.52734 0,18.96807 -17.2585,36.22656 -36.2266,36.22656 h -80 c -18.9681,0 -36.2266,-17.25849 -36.2266,-36.22656 0,-7.08485 2.3007,-13.931 6.211,-19.72852 -1.8883,-1.81694 -4.0732,-3.55436 -6.791,-4.6621 -1.8965,-0.77296 -3.9239,-1.14496 -5.9063,-1.61133 -4.6225,7.57657 -7.287,16.47721 -7.2871,26.00195 -3e-5,27.61429 22.3857,50 50,50 h 80 c 27.6143,0 50,-22.38571 50,-50 -3e-4,-27.6141 -22.3859,-50.00003 -50,-50 z"
         style="opacity:1;fill:#ffff00;fill-opacity:1;fill-rule:nonzero;stroke:#02009c;stroke-width:0;stroke-linecap:butt;stroke-miterlimit:4;stroke-dasharray:none;stroke-dashoffset:0;stroke-opacity:1" />
      <path
         sodipodi:nodetypes="ccssccsssssscscccc"
         inkscape:connector-curvature="0"
         id="path6630"
         transform="matrix(0.26458333,0,0,0.26458333,0,-232.16668)"
         d="m 920,900 c -27.6143,-3e-5 -50.00003,22.38571 -50,50 2.6e-4,27.6141 22.3859,50 50,50 h 80 c 5.5346,0 10.8536,-0.91189 15.8301,-2.57227 -4.3939,-3.23558 -8.236,-7.1317 -11.4785,-11.49414 -1.4299,0.18534 -2.88,0.29297 -4.3516,0.29297 -29.42839,0 -82.46504,-11.92244 -92.82812,-14.69922 C 894.67713,968.17939 883.77344,961.21726 883.77344,950 c 0,-18.96807 17.25849,-36.22656 36.22656,-36.22656 h 80 c 18.9681,0 36.2266,17.25849 36.2266,36.22656 0,7.00994 -2.2547,13.7849 -6.0899,19.54297 1.8679,1.80663 3.9931,3.62264 6.6719,4.84765 1.8547,0.84816 3.8784,1.2218 5.8418,1.71094 4.6598,-7.59799 7.3495,-16.53526 7.3496,-26.10156 0,-27.61429 -22.3857,-50.00003 -50,-50 z"
         style="opacity:1;fill:#ff0000;fill-opacity:1;fill-rule:nonzero;stroke:#02009c;stroke-width:0;stroke-linecap:butt;stroke-miterlimit:4;stroke-dasharray:none;stroke-dashoffset:0;stroke-opacity:1" />
    </g>
    <g
       aria-label="Terrible"
       transform="matrix(2.5582051,0,0,2.3336389,-5734.776,-404.66115)"
       style="font-style:normal;font-variant:normal;font-weight:bold;font-stretch:normal;font-size:64px;line-height:1.25;font-family:'Montserrat Subrayada';-inkscape-font-specification:'Montserrat Subrayada, Bold';font-variant-ligatures:normal;font-variant-caps:normal;font-variant-numeric:normal;font-feature-settings:normal;text-align:end;letter-spacing:0px;word-spacing:0px;writing-mode:lr-tb;text-anchor:end;fill:#ffff00;fill-opacity:1;stroke:none;stroke-width:0.10828741"
       id="flowRoot890">
      <path
         d="m 2379.6878,142.97211 q 0.512,0 0.896,0.384 0.384,0.31999 0.384,0.83199 0,0.57599 -0.384,0.89599 -0.32,0.31999 -0.896,0.31999 h -14.2719 v 41.08756 q 0,0.51199 -0.384,0.89599 -0.384,0.38399 -0.896,0.38399 -0.5759,0 -0.9599,-0.38399 -0.32,-0.384 -0.32,-0.89599 v -41.08756 h -14.2719 q -0.512,0 -0.896,-0.31999 -0.384,-0.384 -0.384,-0.89599 0,-0.512 0.384,-0.83199 0.384,-0.384 0.896,-0.384 z"
         style="font-style:normal;font-variant:normal;font-weight:300;font-stretch:normal;font-size:63.99930573px;font-family:Quicksand;-inkscape-font-specification:'Quicksand, Light';font-variant-ligatures:normal;font-variant-caps:normal;font-variant-numeric:normal;font-feature-settings:normal;text-align:end;letter-spacing:4.46577311px;writing-mode:lr-tb;text-anchor:end;fill:#ffff00;fill-opacity:1;stroke-width:0.0149614"
         id="path4527"
         inkscape:connector-curvature="0" />
      <path
         d="m 2410.6213,180.09171 q 0.448,0 0.768,0.38399 0.32,0.32 0.32,0.76799 0,0.448 -0.256,0.768 -2.112,2.81597 -5.248,4.60795 -3.136,1.79198 -6.7199,1.79198 -4.8,0 -8.5119,-2.04798 -3.712,-2.04798 -5.824,-5.82394 -2.0479,-3.77596 -2.0479,-8.7679 0,-5.11995 1.9839,-8.95991 2.048,-3.90395 5.376,-5.95193 3.3279,-2.04798 7.1039,-2.04798 3.776,0 6.9759,1.66398 3.264,1.59999 5.312,4.86395 2.048,3.26396 2.176,8.06391 0,0.512 -0.384,0.95999 -0.384,0.384 -0.896,0.384 h -25.1518 v 0.83199 q 0,3.96796 1.6,7.29592 1.6,3.26396 4.736,5.18394 3.1359,1.91998 7.5519,1.91998 3.072,0 5.7599,-1.47198 2.752,-1.53598 4.288,-3.83996 0.448,-0.57599 1.088,-0.57599 z m -13.0559,-22.71976 q -2.368,0 -4.8639,1.27999 -2.432,1.21599 -4.352,3.71196 -1.856,2.43197 -2.496,5.95193 h 23.5518 v -0.57599 q -0.32,-3.26396 -2.112,-5.56794 -1.728,-2.36797 -4.3519,-3.58396 -2.56,-1.21599 -5.376,-1.21599 z"
         style="font-style:normal;font-variant:normal;font-weight:300;font-stretch:normal;font-size:63.99930573px;font-family:Quicksand;-inkscape-font-specification:'Quicksand, Light';font-variant-ligatures:normal;font-variant-caps:normal;font-variant-numeric:normal;font-feature-settings:normal;text-align:end;letter-spacing:4.46577311px;writing-mode:lr-tb;text-anchor:end;fill:#ffff00;fill-opacity:1;stroke-width:0.0149614"
         id="path4529"
         inkscape:connector-curvature="0" />
      <path
         d="m 2439.3958,154.81198 q 2.9439,0 2.9439,1.47199 0,0.57599 -0.32,0.95998 -0.32,0.384 -0.8319,0.384 -0.192,0 -0.96,-0.256 -0.704,-0.31999 -1.536,-0.31999 -2.624,0 -5.248,2.11197 -2.6239,2.04798 -4.2879,5.24795 -1.664,3.13596 -1.664,6.07993 v 15.99983 q 0,0.51199 -0.384,0.89599 -0.384,0.38399 -0.896,0.38399 -0.576,0 -0.96,-0.38399 -0.32,-0.384 -0.32,-0.89599 v -29.37568 q 0,-0.512 0.384,-0.89599 0.384,-0.384 0.896,-0.384 0.576,0 0.896,0.384 0.384,0.38399 0.384,0.89599 v 6.78392 q 1.472,-3.90396 4.544,-6.46393 3.1359,-2.55997 7.3599,-2.62397 z"
         style="font-style:normal;font-variant:normal;font-weight:300;font-stretch:normal;font-size:63.99930573px;font-family:Quicksand;-inkscape-font-specification:'Quicksand, Light';font-variant-ligatures:normal;font-variant-caps:normal;font-variant-numeric:normal;font-feature-settings:normal;text-align:end;letter-spacing:4.46577311px;writing-mode:lr-tb;text-anchor:end;fill:#ffff00;fill-opacity:1;stroke-width:0.0149614"
         id="path4531"
         inkscape:connector-curvature="0" />
      <path
         d="m 2467.3613,154.81198 q 2.944,0 2.944,1.47199 0,0.57599 -0.32,0.95998 -0.32,0.384 -0.832,0.384 -0.192,0 -0.96,-0.256 -0.704,-0.31999 -1.536,-0.31999 -2.624,0 -5.2479,2.11197 -2.624,2.04798 -4.288,5.24795 -1.664,3.13596 -1.664,6.07993 v 15.99983 q 0,0.51199 -0.384,0.89599 -0.384,0.38399 -0.896,0.38399 -0.576,0 -0.96,-0.38399 -0.3199,-0.384 -0.3199,-0.89599 v -29.37568 q 0,-0.512 0.3839,-0.89599 0.384,-0.384 0.896,-0.384 0.576,0 0.896,0.384 0.384,0.38399 0.384,0.89599 v 6.78392 q 1.472,-3.90396 4.544,-6.46393 3.1359,-2.55997 7.3599,-2.62397 z"
         style="font-style:normal;font-variant:normal;font-weight:300;font-stretch:normal;font-size:63.99930573px;font-family:Quicksand;-inkscape-font-specification:'Quicksand, Light';font-variant-ligatures:normal;font-variant-caps:normal;font-variant-numeric:normal;font-feature-settings:normal;text-align:end;letter-spacing:4.46577311px;writing-mode:lr-tb;text-anchor:end;fill:#ffff00;fill-opacity:1;stroke-width:0.0149614"
         id="path4533"
         inkscape:connector-curvature="0" />
      <path
         d="m 2483.4229,186.49164 q 0,0.51199 -0.3839,0.89599 -0.384,0.38399 -0.896,0.38399 -0.576,0 -0.96,-0.38399 -0.32,-0.384 -0.32,-0.89599 v -30.39967 q 0,-0.512 0.384,-0.89599 0.384,-0.384 0.896,-0.384 0.576,0 0.896,0.384 0.3839,0.38399 0.3839,0.89599 z m -1.2799,-36.03161 q -1.024,0 -1.664,-0.576 -0.576,-0.57599 -0.576,-1.47198 v -0.51199 q 0,-0.89599 0.64,-1.47199 0.64,-0.57599 1.664,-0.57599 0.896,0 1.4719,0.57599 0.64,0.576 0.64,1.47199 v 0.51199 q 0,0.89599 -0.64,1.47198 -0.5759,0.576 -1.5359,0.576 z"
         style="font-style:normal;font-variant:normal;font-weight:300;font-stretch:normal;font-size:63.99930573px;font-family:Quicksand;-inkscape-font-specification:'Quicksand, Light';font-variant-ligatures:normal;font-variant-caps:normal;font-variant-numeric:normal;font-feature-settings:normal;text-align:end;letter-spacing:4.46577311px;writing-mode:lr-tb;text-anchor:end;fill:#ffff00;fill-opacity:1;stroke-width:0.0149614"
         id="path4535"
         inkscape:connector-curvature="0" />
      <path
         d="m 2513.3014,154.81198 q 4.224,0 7.616,2.17598 3.3919,2.11197 5.3119,5.95193 1.92,3.77596 1.92,8.51191 0,4.73595 -1.984,8.63991 -1.92,3.83996 -5.3119,6.07993 -3.392,2.23998 -7.552,2.23998 -3.7759,0 -6.9759,-1.98398 -3.2,-2.04798 -5.3119,-5.63194 v 5.69594 q 0,0.51199 -0.384,0.89599 -0.32,0.38399 -0.896,0.38399 -0.512,0 -0.896,-0.38399 -0.384,-0.384 -0.384,-0.89599 v -44.73552 q 0,-0.51199 0.32,-0.89599 0.384,-0.38399 0.96,-0.38399 0.576,0 0.896,0.38399 0.384,0.384 0.384,0.89599 v 20.86378 q 1.9199,-3.77596 5.1199,-5.75994 3.264,-2.04798 7.1679,-2.04798 z m -0.128,31.16766 q 3.52,0 6.336,-1.91998 2.8159,-1.91998 4.4159,-5.18394 1.664,-3.32796 1.664,-7.42392 0,-4.09596 -1.664,-7.29592 -1.6,-3.26396 -4.4159,-5.05595 -2.816,-1.85598 -6.336,-1.85598 -3.5839,0 -6.4639,1.85598 -2.816,1.79199 -4.4159,5.05595 -1.536,3.19996 -1.536,7.29592 0,4.09596 1.6,7.42392 1.5999,3.32796 4.4159,5.24794 2.816,1.85598 6.3999,1.85598 z"
         style="font-style:normal;font-variant:normal;font-weight:300;font-stretch:normal;font-size:63.99930573px;font-family:Quicksand;-inkscape-font-specification:'Quicksand, Light';font-variant-ligatures:normal;font-variant-caps:normal;font-variant-numeric:normal;font-feature-settings:normal;text-align:end;letter-spacing:4.46577311px;writing-mode:lr-tb;text-anchor:end;fill:#ffff00;fill-opacity:1;stroke-width:0.0149614"
         id="path4537"
         inkscape:connector-curvature="0" />
      <path
         d="m 2543.9239,186.49164 q 0,0.51199 -0.384,0.89599 -0.384,0.38399 -0.896,0.38399 -0.576,0 -0.9599,-0.38399 -0.32,-0.384 -0.32,-0.89599 v -44.79952 q 0,-0.51199 0.384,-0.89599 0.3839,-0.38399 0.8959,-0.38399 0.576,0 0.896,0.38399 0.384,0.384 0.384,0.89599 z"
         style="font-style:normal;font-variant:normal;font-weight:300;font-stretch:normal;font-size:63.99930573px;font-family:Quicksand;-inkscape-font-specification:'Quicksand, Light';font-variant-ligatures:normal;font-variant-caps:normal;font-variant-numeric:normal;font-feature-settings:normal;text-align:end;letter-spacing:4.46577311px;writing-mode:lr-tb;text-anchor:end;fill:#ffff00;fill-opacity:1;stroke-width:0.0149614"
         id="path4539"
         inkscape:connector-curvature="0" />
      <path
         d="m 2584.0393,180.09171 q 0.448,0 0.768,0.38399 0.32,0.32 0.32,0.76799 0,0.448 -0.256,0.768 -2.112,2.81597 -5.2479,4.60795 -3.136,1.79198 -6.72,1.79198 -4.7999,0 -8.5119,-2.04798 -3.7119,-2.04798 -5.8239,-5.82394 -2.048,-3.77596 -2.048,-8.7679 0,-5.11995 1.984,-8.95991 2.048,-3.90395 5.3759,-5.95193 3.328,-2.04798 7.104,-2.04798 3.7759,0 6.9759,1.66398 3.2639,1.59999 5.3119,4.86395 2.048,3.26396 2.176,8.06391 0,0.512 -0.384,0.95999 -0.384,0.384 -0.896,0.384 h -25.1517 v 0.83199 q 0,3.96796 1.6,7.29592 1.5999,3.26396 4.7359,5.18394 3.136,1.91998 7.5519,1.91998 3.072,0 5.76,-1.47198 2.7519,-1.53598 4.2879,-3.83996 0.448,-0.57599 1.088,-0.57599 z m -13.0558,-22.71976 q -2.368,0 -4.864,1.27999 -2.432,1.21599 -4.3519,3.71196 -1.856,2.43197 -2.496,5.95193 h 23.5517 v -0.57599 q -0.32,-3.26396 -2.112,-5.56794 -1.7279,-2.36797 -4.3519,-3.58396 -2.56,-1.21599 -5.3759,-1.21599 z"
         style="font-style:normal;font-variant:normal;font-weight:300;font-stretch:normal;font-size:63.99930573px;font-family:Quicksand;-inkscape-font-specification:'Quicksand, Light';font-variant-ligatures:normal;font-variant-caps:normal;font-variant-numeric:normal;font-feature-settings:normal;text-align:end;letter-spacing:4.46577311px;writing-mode:lr-tb;text-anchor:end;fill:#ffff00;fill-opacity:1;stroke-width:0.0149614"
         id="path4541"
         inkscape:connector-curvature="0" />
    </g>
    <g
       aria-label="Coding"
       transform="matrix(2.5582051,0,0,2.3336389,-5734.776,-214.16103)"
       style="font-style:normal;font-variant:normal;font-weight:bold;font-stretch:normal;font-size:64px;line-height:1.25;font-family:'Montserrat Subrayada';-inkscape-font-specification:'Montserrat Subrayada, Bold';font-variant-ligatures:normal;font-variant-caps:normal;font-variant-numeric:normal;font-feature-settings:normal;text-align:end;letter-spacing:0px;word-spacing:0px;writing-mode:lr-tb;text-anchor:end;fill:#ff0000;fill-opacity:1;stroke:none;stroke-width:0.10828741"
       id="flowRoot908">
      <path
         d="m 2426.9289,146.68407 q 0.576,0.44799 0.576,1.02399 0,0.51199 -0.256,0.83199 -0.384,0.51199 -0.96,0.51199 -0.256,0 -0.768,-0.25599 -5.9519,-4.03196 -12.6079,-4.03196 -5.3759,0 -9.9199,2.68797 -4.4799,2.62397 -7.1039,7.35992 -2.624,4.67195 -2.624,10.55989 0,5.88793 2.624,10.62388 2.624,4.67195 7.1039,7.35992 4.544,2.62397 9.9199,2.62397 6.72,0 12.5439,-3.96795 0.32,-0.256 0.768,-0.256 0.64,0 1.024,0.51199 0.256,0.32 0.256,0.76799 0,0.64 -0.512,1.02399 -2.496,1.79198 -6.4639,3.07197 -3.904,1.27999 -7.616,1.27999 -6.0799,0 -11.1998,-3.00797 -5.12,-3.00797 -8.128,-8.25591 -3.0079,-5.31194 -3.0079,-11.77587 0,-6.46393 3.0079,-11.71188 3.008,-5.31194 8.128,-8.31991 5.1199,-3.00796 11.1998,-3.00796 3.84,0 7.424,1.15198 3.6479,1.15199 6.5919,3.19997 z"
         style="font-style:normal;font-variant:normal;font-weight:300;font-stretch:normal;font-size:63.99930573px;font-family:Quicksand;-inkscape-font-specification:'Quicksand, Light';font-variant-ligatures:normal;font-variant-caps:normal;font-variant-numeric:normal;font-feature-settings:normal;text-align:end;letter-spacing:-1.23555934px;writing-mode:lr-tb;text-anchor:end;fill:#ff0000;fill-opacity:1;stroke-width:0.0149614"
         id="path4544"
         inkscape:connector-curvature="0" />
      <path
         d="m 2463.1399,171.6438 q 0,4.73595 -2.048,8.57591 -2.0479,3.77595 -5.6959,6.01593 -3.584,2.17598 -7.9999,2.17598 -4.416,0 -8.0639,-2.17598 -3.584,-2.23998 -5.696,-6.07993 -2.0479,-3.83996 -2.0479,-8.51191 0,-4.73595 2.0479,-8.57591 2.112,-3.83996 5.696,-6.01593 3.5839,-2.23998 8.0639,-2.23998 4.4159,0 7.9999,2.23998 3.648,2.17597 5.6959,6.01593 2.048,3.83996 2.048,8.57591 z m -2.56,0 q 0,-4.09596 -1.7279,-7.35992 -1.664,-3.26397 -4.672,-5.11995 -3.008,-1.91998 -6.7839,-1.91998 -3.712,0 -6.7839,1.91998 -3.008,1.85598 -4.736,5.11995 -1.728,3.26396 -1.728,7.35992 0,4.03195 1.728,7.29592 1.728,3.26396 4.736,5.18394 3.0719,1.85598 6.7839,1.85598 3.7759,0 6.7839,-1.85598 3.008,-1.85598 4.672,-5.11994 1.7279,-3.32797 1.7279,-7.35992 z"
         style="font-style:normal;font-variant:normal;font-weight:300;font-stretch:normal;font-size:63.99930573px;font-family:Quicksand;-inkscape-font-specification:'Quicksand, Light';font-variant-ligatures:normal;font-variant-caps:normal;font-variant-numeric:normal;font-feature-settings:normal;text-align:end;letter-spacing:-1.23555934px;writing-mode:lr-tb;text-anchor:end;fill:#ff0000;fill-opacity:1;stroke-width:0.0149614"
         id="path4546"
         inkscape:connector-curvature="0" />
      <path
         d="m 2496.518,140.41214 q 0.576,0 0.896,0.38399 0.384,0.384 0.384,0.89599 v 44.79952 q 0,0.51199 -0.384,0.89599 -0.384,0.38399 -0.896,0.38399 -0.576,0 -0.96,-0.38399 -0.32,-0.384 -0.32,-0.89599 v -6.07994 q -1.536,3.39197 -4.8639,5.69594 -3.328,2.30398 -7.424,2.30398 -4.1599,0 -7.5519,-2.17598 -3.3919,-2.23998 -5.3759,-6.07993 -1.92,-3.83996 -1.92,-8.57591 0,-4.73595 1.92,-8.57591 1.984,-3.83996 5.3759,-6.01593 3.392,-2.17598 7.5519,-2.17598 3.968,0 7.36,2.23998 3.3919,2.23997 4.9279,5.82393 v -21.18377 q 0,-0.51199 0.32,-0.89599 0.384,-0.38399 0.96,-0.38399 z m -13.4399,45.5675 q 3.584,0 6.4,-1.85598 2.8159,-1.85598 4.4159,-5.11994 1.6,-3.32797 1.6,-7.42392 0,-4.09596 -1.6,-7.35992 -1.6,-3.26397 -4.4799,-5.11995 -2.816,-1.85598 -6.336,-1.85598 -3.4559,0 -6.3359,1.85598 -2.816,1.85598 -4.48,5.18395 -1.5999,3.26396 -1.5999,7.29592 0,4.09595 1.5999,7.35992 1.664,3.26396 4.48,5.18394 2.816,1.85598 6.3359,1.85598 z"
         style="font-style:normal;font-variant:normal;font-weight:300;font-stretch:normal;font-size:63.99930573px;font-family:Quicksand;-inkscape-font-specification:'Quicksand, Light';font-variant-ligatures:normal;font-variant-caps:normal;font-variant-numeric:normal;font-feature-settings:normal;text-align:end;letter-spacing:-1.23555934px;writing-mode:lr-tb;text-anchor:end;fill:#ff0000;fill-opacity:1;stroke-width:0.0149614"
         id="path4548"
         inkscape:connector-curvature="0" />
      <path
         d="m 2509.7913,186.49164 q 0,0.51199 -0.384,0.89599 -0.384,0.38399 -0.896,0.38399 -0.576,0 -0.96,-0.38399 -0.32,-0.384 -0.32,-0.89599 v -30.39967 q 0,-0.512 0.384,-0.89599 0.384,-0.384 0.896,-0.384 0.576,0 0.896,0.384 0.384,0.38399 0.384,0.89599 z m -1.28,-36.03161 q -1.024,0 -1.664,-0.576 -0.576,-0.57599 -0.576,-1.47198 v -0.51199 q 0,-0.89599 0.64,-1.47199 0.64,-0.57599 1.664,-0.57599 0.896,0 1.472,0.57599 0.64,0.576 0.64,1.47199 v 0.51199 q 0,0.89599 -0.64,1.47198 -0.576,0.576 -1.536,0.576 z"
         style="font-style:normal;font-variant:normal;font-weight:300;font-stretch:normal;font-size:63.99930573px;font-family:Quicksand;-inkscape-font-specification:'Quicksand, Light';font-variant-ligatures:normal;font-variant-caps:normal;font-variant-numeric:normal;font-feature-settings:normal;text-align:end;letter-spacing:-1.23555934px;writing-mode:lr-tb;text-anchor:end;fill:#ff0000;fill-opacity:1;stroke-width:0.0149614"
         id="path4550"
         inkscape:connector-curvature="0" />
      <path
         d="m 2533.6484,154.81198 q 5.696,0 8.5759,3.39196 2.88,3.32797 2.88,8.70391 v 19.58379 q 0,0.51199 -0.384,0.89599 -0.384,0.38399 -0.896,0.38399 -0.576,0 -0.96,-0.38399 -0.32,-0.384 -0.32,-0.89599 v -19.32779 q 0,-4.35196 -2.3039,-7.10393 -2.24,-2.81597 -6.848,-2.81597 -2.8159,0 -5.5679,1.34399 -2.688,1.34399 -4.416,3.64796 -1.7279,2.30398 -1.7279,4.92795 v 19.32779 q 0,0.51199 -0.384,0.89599 -0.384,0.38399 -0.896,0.38399 -0.576,0 -0.96,-0.38399 -0.32,-0.384 -0.32,-0.89599 v -29.37568 q 0,-0.512 0.384,-0.89599 0.384,-0.384 0.896,-0.384 0.576,0 0.896,0.384 0.384,0.38399 0.384,0.89599 v 4.28795 q 1.8559,-2.87997 5.1839,-4.73595 3.392,-1.85598 6.7839,-1.85598 z"
         style="font-style:normal;font-variant:normal;font-weight:300;font-stretch:normal;font-size:63.99930573px;font-family:Quicksand;-inkscape-font-specification:'Quicksand, Light';font-variant-ligatures:normal;font-variant-caps:normal;font-variant-numeric:normal;font-feature-settings:normal;text-align:end;letter-spacing:-1.23555934px;writing-mode:lr-tb;text-anchor:end;fill:#ff0000;fill-opacity:1;stroke-width:0.0149614"
         id="path4552"
         inkscape:connector-curvature="0" />
      <path
         d="m 2581.9653,155.83597 q 0.576,0 0.896,0.384 0.384,0.38399 0.384,0.89599 v 27.5197 q 0,4.86394 -1.9839,8.44791 -1.984,3.58396 -5.568,5.50394 -3.5839,1.98397 -8.1919,1.98397 -2.56,0 -5.1839,-0.70399 -2.624,-0.63999 -4.352,-1.72798 -1.664,-1.02399 -1.664,-2.11198 0,-0.51199 0.256,-0.83199 0.32,-0.31999 0.832,-0.31999 0.384,0 1.152,0.63999 0.896,0.89599 1.984,1.34398 3.1359,1.27999 7.1039,1.27999 6.0159,0 9.5359,-3.71196 3.52,-3.71196 3.52,-9.79189 v -4.41595 q -1.728,4.09595 -5.376,6.14393 -3.5839,2.04798 -7.5519,2.04798 -4.352,0 -7.9359,-2.17598 -3.52,-2.23998 -5.568,-6.07993 -1.9839,-3.83996 -1.9839,-8.57591 0,-4.73595 1.9839,-8.57591 2.048,-3.83996 5.568,-6.01593 3.5839,-2.17598 7.9359,-2.17598 4.288,0 7.8079,2.30398 3.584,2.23997 5.12,5.43994 v -5.43994 q 0,-0.512 0.32,-0.89599 0.384,-0.384 0.9599,-0.384 z m -14.0798,30.14367 q 3.712,0 6.6559,-1.79198 3.008,-1.85598 4.672,-5.11994 1.728,-3.26397 1.728,-7.48792 0,-4.22396 -1.728,-7.48792 -1.664,-3.26396 -4.672,-5.05594 -2.9439,-1.79199 -6.6559,-1.79199 -3.712,0 -6.7199,1.85598 -2.944,1.85598 -4.672,5.11995 -1.664,3.26396 -1.664,7.35992 0,4.09595 1.664,7.35992 1.728,3.26396 4.672,5.18394 3.0079,1.85598 6.7199,1.85598 z"
         style="font-style:normal;font-variant:normal;font-weight:300;font-stretch:normal;font-size:63.99930573px;font-family:Quicksand;-inkscape-font-specification:'Quicksand, Light';font-variant-ligatures:normal;font-variant-caps:normal;font-variant-numeric:normal;font-feature-settings:normal;text-align:end;letter-spacing:-1.23555934px;writing-mode:lr-tb;text-anchor:end;fill:#ff0000;fill-opacity:1;stroke-width:0.0149614"
         id="path4554"
         inkscape:connector-curvature="0" />
    </g>
  </g>
</svg>
