<?xml version="1.0" encoding="UTF-8" standalone="no"?>
<!-- Created with Inkscape (http://www.inkscape.org/) -->

<svg
   xmlns:dc="http://purl.org/dc/elements/1.1/"
   xmlns:cc="http://creativecommons.org/ns#"
   xmlns:rdf="http://www.w3.org/1999/02/22-rdf-syntax-ns#"
   xmlns:svg="http://www.w3.org/2000/svg"
   xmlns="http://www.w3.org/2000/svg"
   xmlns:sodipodi="http://sodipodi.sourceforge.net/DTD/sodipodi-0.dtd"
   xmlns:inkscape="http://www.inkscape.org/namespaces/inkscape"
   width="48"
   height="48"
   viewBox="0 0 12.7 12.7"
   version="1.1"
   id="svg8"
   inkscape:version="0.92.3 (2405546, 2018-03-11)"
   sodipodi:docname="translate.svg">
  <defs
     id="defs2" />
  <sodipodi:namedview
     id="base"
     pagecolor="#ffffff"
     bordercolor="#666666"
     borderopacity="1.0"
     inkscape:pageopacity="0.0"
     inkscape:pageshadow="2"
     inkscape:zoom="11.2"
     inkscape:cx="21.218522"
     inkscape:cy="22.119336"
     inkscape:document-units="mm"
     inkscape:current-layer="layer1"
     showgrid="false"
     inkscape:pagecheckerboard="true"
     units="px"
     inkscape:window-width="1920"
     inkscape:window-height="1001"
     inkscape:window-x="-9"
     inkscape:window-y="-9"
     inkscape:window-maximized="1" />
  <metadata
     id="metadata5">
    <rdf:RDF>
      <cc:Work
         rdf:about="">
        <dc:format>image/svg+xml</dc:format>
        <dc:type
           rdf:resource="http://purl.org/dc/dcmitype/StillImage" />
        <dc:title></dc:title>
      </cc:Work>
    </rdf:RDF>
  </metadata>
  <g
     inkscape:label="Livello 1"
     inkscape:groupmode="layer"
     id="layer1"
     transform="translate(0,-284.3)">
    <g
       id="g4531"
       transform="matrix(0.89970065,0,0,0.88375693,0.13339391,26.632046)"
       style="stroke-width:1.12146187">
      <rect
         y="291.70834"
         x="0"
         height="5.291667"
         width="2.6458333"
         id="rect4516"
         style="opacity:1;fill:#a6a6a6;fill-opacity:1;fill-rule:nonzero;stroke:none;stroke-width:2.96720147;stroke-linecap:butt;stroke-miterlimit:4;stroke-dasharray:none;stroke-dashoffset:0;stroke-opacity:0" />
      <rect
         style="opacity:1;fill:none;fill-opacity:1;fill-rule:nonzero;stroke:#a6a6a6;stroke-width:0.29672015;stroke-linecap:butt;stroke-linejoin:round;stroke-miterlimit:4;stroke-dasharray:none;stroke-dashoffset:0;stroke-opacity:1"
         id="rect4522"
         width="7.9375"
         height="5.2916665"
         x="-1.3322676e-015"
         y="291.70834" />
      <rect
         y="291.70834"
         x="5.2916665"
         height="5.291667"
         width="2.6458333"
         id="rect4524"
         style="opacity:1;fill:#a6a6a6;fill-opacity:1;fill-rule:nonzero;stroke:none;stroke-width:2.96720147;stroke-linecap:butt;stroke-miterlimit:4;stroke-dasharray:none;stroke-dashoffset:0;stroke-opacity:0" />
    </g>
    <path
       style="fill:#a6a6a6;fill-opacity:1;stroke-width:0.99999988"
       d="m 8.4199516,286.83023 c 0.6726388,0.25424 1.1977293,1.02222 1.2976183,1.89791 l 0.081101,0.71043 H 9.2889792 c -0.2888639,0 -0.5097028,0.0627 -0.5097028,0.14471 0,0.24309 1.7361336,2.12505 1.9603766,2.12505 0.224062,0 1.960347,-1.88196 1.960347,-2.12505 0,-0.0845 -0.233533,-0.14471 -0.560101,-0.14471 -0.530295,0 -0.560102,-0.0204 -0.560102,-0.38408 0,-1.2646 -1.328876,-2.44353 -2.9500968,-2.61721 -0.8243785,-0.0882 -0.9349796,0.11879 -0.2099301,0.39295 z"
       id="path4544"
       inkscape:connector-curvature="0" />
    <g
       id="g4575"
       transform="matrix(0.93099107,0,0,0.92892559,5.3015378,21.100109)"
       style="stroke-width:1.07531762">
      <rect
         y="291.84064"
         x="0.13229166"
         height="5.0270834"
         width="7.6729169"
         id="rect4526"
         style="opacity:1;fill:none;fill-opacity:1;fill-rule:nonzero;stroke:#a6a6a6;stroke-width:0.28451112;stroke-linecap:butt;stroke-linejoin:round;stroke-miterlimit:4;stroke-dasharray:none;stroke-dashoffset:0;stroke-opacity:1" />
      <rect
         y="291.70834"
         x="-4.4408921e-016"
         height="2.6458335"
         width="3.9687498"
         id="rect4546"
         style="opacity:1;fill:#a6a6a6;fill-opacity:1;fill-rule:nonzero;stroke:none;stroke-width:0.28451112;stroke-linecap:butt;stroke-miterlimit:4;stroke-dasharray:none;stroke-dashoffset:0;stroke-opacity:1"
         rx="0.28419536"
         ry="0.28482726" />
      <rect
         style="opacity:1;fill:#a6a6a6;fill-opacity:1;fill-rule:nonzero;stroke:none;stroke-width:0.28451112;stroke-linecap:butt;stroke-miterlimit:4;stroke-dasharray:none;stroke-dashoffset:0;stroke-opacity:1"
         id="rect4550"
         width="7.9374995"
         height="0.52916664"
         x="0"
         y="295.94165" />
      <rect
         style="opacity:1;fill:#a6a6a6;fill-opacity:1;fill-rule:nonzero;stroke:none;stroke-width:0.28451112;stroke-linecap:butt;stroke-miterlimit:4;stroke-dasharray:none;stroke-dashoffset:0;stroke-opacity:1"
         id="rect4554"
         width="7.9374995"
         height="0.52916664"
         x="0"
         y="294.8833" />
      <rect
         style="opacity:1;fill:#a6a6a6;fill-opacity:1;fill-rule:nonzero;stroke:none;stroke-width:0.28451112;stroke-linecap:butt;stroke-miterlimit:4;stroke-dasharray:none;stroke-dashoffset:0;stroke-opacity:1"
         id="rect4558"
         width="7.9374995"
         height="0.52916664"
         x="-4.4408921e-016"
         y="293.82501" />
      <rect
         style="opacity:1;fill:#a6a6a6;fill-opacity:1;fill-rule:nonzero;stroke:none;stroke-width:0.28451112;stroke-linecap:butt;stroke-miterlimit:4;stroke-dasharray:none;stroke-dashoffset:0;stroke-opacity:1"
         id="rect4562"
         width="7.9374995"
         height="0.52916664"
         x="-4.4408921e-016"
         y="292.76666" />
      <rect
         style="opacity:1;fill:#a6a6a6;fill-opacity:1;fill-rule:nonzero;stroke:none;stroke-width:0.28451112;stroke-linecap:butt;stroke-miterlimit:4;stroke-dasharray:none;stroke-dashoffset:0;stroke-opacity:1"
         id="rect4566"
         width="7.9374995"
         height="0.52916664"
         x="-4.4408921e-016"
         y="291.70831"
         rx="0.28419536"
         ry="0.28482726" />
    </g>
    <path
       inkscape:connector-curvature="0"
       id="path4577"
       d="m 4.280047,294.4698 c -0.672638,-0.25423 -1.197729,-1.02222 -1.297618,-1.89792 l -0.0811,-0.71042 h 0.509692 c 0.288864,0 0.509703,-0.0627 0.509703,-0.1447 0,-0.24309 -1.736134,-2.12504 -1.960377,-2.12504 C 1.736285,289.5917 0,291.47365 0,291.71675 c 0,0.0845 0.233533,0.1447 0.560101,0.1447 0.530295,0 0.560102,0.0204 0.560102,0.38407 0,1.26459 1.328876,2.44353 2.950097,2.61721 0.824378,0.0882 0.934979,-0.11879 0.20993,-0.39294 z"
       style="fill:#a6a6a6;fill-opacity:1;stroke-width:0.99999988" />
  </g>
</svg>
